<svg data-v-729528c3="" width="83" height="17" viewBox="0 0 83 17" xmlns="http://www.w3.org/2000/svg" svg-inline="" role="presentation" focusable="false" tabindex="-1" class="nav-bar__logo"><g data-v-729528c3="" fill="#000" fill-rule="evenodd" class="painted"><path data-v-729528c3="" d="M7.471 0L.553 16.346h3.803l1.489-3.53h6.711l1.49 3.53h3.802L10.93 0H7.471zm1.74 4.864l1.994 4.747H7.196l2.016-4.747zM48.428 0v16.346h12.335v-3.25h-8.554V0zM77.996 0l-3.66 6.08L70.676 0h-4.097l5.866 9.892v6.454h3.781V9.892L82.092 0zM35.098 11.792c0 .97-.95 1.765-1.921 1.765h-3.923v-3.59h2.972v.001h.95c.972 0 1.922.794 1.922 1.765v.06zM32.24 2.816v.001h.344c.97 0 1.765.794 1.765 1.765v.059a1.77 1.77 0 01-1.765 1.765h-3.33v-3.59h2.986zm-6.812 13.53l4.308.002h.021l5.18.001a4.01 4.01 0 004.004-4v-.642a4.02 4.02 0 00-3.148-3.91l-.035-.01c.055-.017.153-.04.21-.06 2.364-.76 2.122-3.592 2.122-3.592 0-2.206-2.049-4.016-4.235-4.1l-4.073-.01h-4.356l.002 16.322z"></path></g></svg>